<?xml version="1.0" standalone="no"?>
<!DOCTYPE svg PUBLIC "-//W3C//DTD SVG 20010904//EN"
 "http://www.w3.org/TR/2001/REC-SVG-20010904/DTD/svg10.dtd">
<svg version="1.0" xmlns="http://www.w3.org/2000/svg"
 width="500.000000pt" height="500.000000pt" viewBox="0 0 500.000000 500.000000"
 preserveAspectRatio="xMidYMid meet">
<metadata>
Created by potrace 1.14, written by Peter Selinger 2001-2017
</metadata>
<g transform="translate(0.000000,500.000000) scale(0.100000,-0.100000)"
fill="#000000" stroke="none">
<path d="M0 2500 l0 -2500 2500 0 2500 0 0 2500 0 2500 -2500 0 -2500 0 0
-2500z m3007 1070 c84 -5 175 -12 202 -16 l49 -6 7 -72 c9 -89 9 -318 0 -384
l-6 -49 -52 -11 c-29 -6 -97 -16 -152 -22 -172 -19 -233 -47 -274 -128 -26
-49 -32 -160 -46 -802 -12 -557 -24 -813 -39 -827 -1 -1 -71 -6 -154 -11 -130
-8 -448 1 -459 12 -14 14 -24 168 -33 526 -25 995 -26 1032 -45 1080 -9 25
-35 62 -57 82 -44 41 -80 51 -236 68 -53 6 -118 16 -144 21 -46 11 -47 12 -55
57 -10 60 -10 330 0 404 l8 56 62 8 c195 23 1129 32 1424 14z m-91 -1562 c-21
-30 -20 -61 3 -89 16 -19 29 -24 69 -24 28 0 45 -3 39 -7 -7 -4 -33 -8 -59 -8
-60 0 -88 24 -88 75 0 22 8 43 20 55 27 27 35 25 16 -2z m351 -128 c-14 -33
-34 -59 -59 -76 -31 -22 -38 -33 -38 -60 0 -31 3 -34 30 -34 l30 0 0 -132 c1
-214 30 -253 186 -246 94 3 87 -10 -11 -19 -48 -4 -76 -2 -109 11 -72 28 -80
48 -86 221 l-5 150 -32 3 c-30 3 -33 6 -33 36 0 27 7 37 44 63 33 23 48 43 62
82 10 28 23 51 30 51 8 0 6 -16 -9 -50z m-357 -300 l0 -249 78 -4 77 -3 -92
-2 -93 -2 0 255 c0 220 2 255 15 255 13 0 15 -34 15 -250z m578 123 c-15 -2
-42 -2 -60 0 -18 2 -6 4 27 4 33 0 48 -2 33 -4z m134 -245 c-7 -7 -12 -31 -12
-53 0 -55 25 -78 84 -79 49 -1 39 -16 -11 -16 -46 0 -80 18 -93 51 -14 34 -5
85 18 99 23 13 28 12 14 -2z"/>
</g>
</svg>
